<svg xmlns="http://www.w3.org/2000/svg" xmlns:xlink="http://www.w3.org/1999/xlink" viewBox="0 0 369.19 35.53"><defs><style>.cls-1{fill:url(#New_Gradient_Swatch_2);}.cls-2{fill:url(#New_Gradient_Swatch_2-2);}.cls-3{fill:url(#New_Gradient_Swatch_2-3);}.cls-4{fill:url(#New_Gradient_Swatch_2-4);}.cls-5{fill:url(#New_Gradient_Swatch_2-5);}.cls-6{fill:url(#New_Gradient_Swatch_2-6);}.cls-7{fill:url(#New_Gradient_Swatch_2-7);}.cls-8{fill:url(#New_Gradient_Swatch_2-8);}.cls-9{fill:url(#New_Gradient_Swatch_2-9);}.cls-10{fill:url(#New_Gradient_Swatch_2-10);}.cls-11{fill:url(#New_Gradient_Swatch_2-11);}</style><linearGradient id="New_Gradient_Swatch_2" x1="14.3" y1="35.53" x2="14.3" gradientUnits="userSpaceOnUse"><stop offset="0" stop-color="#ff9a03"/><stop offset="0" stop-color="#8f314f"/><stop offset="1" stop-color="#dd704f"/></linearGradient><linearGradient id="New_Gradient_Swatch_2-2" x1="49.8" y1="35.53" x2="49.8" xlink:href="#New_Gradient_Swatch_2"/><linearGradient id="New_Gradient_Swatch_2-3" x1="85.04" y1="35.53" x2="85.04" xlink:href="#New_Gradient_Swatch_2"/><linearGradient id="New_Gradient_Swatch_2-4" x1="117.84" y1="35.53" x2="117.84" xlink:href="#New_Gradient_Swatch_2"/><linearGradient id="New_Gradient_Swatch_2-5" x1="151.09" y1="35.53" x2="151.09" xlink:href="#New_Gradient_Swatch_2"/><linearGradient id="New_Gradient_Swatch_2-6" x1="199.31" y1="35.53" x2="199.31" xlink:href="#New_Gradient_Swatch_2"/><linearGradient id="New_Gradient_Swatch_2-7" x1="233.86" y1="35.53" x2="233.86" xlink:href="#New_Gradient_Swatch_2"/><linearGradient id="New_Gradient_Swatch_2-8" x1="257.89" y1="35.53" x2="257.89" xlink:href="#New_Gradient_Swatch_2"/><linearGradient id="New_Gradient_Swatch_2-9" x1="283.89" y1="35.53" x2="283.89" xlink:href="#New_Gradient_Swatch_2"/><linearGradient id="New_Gradient_Swatch_2-10" x1="319.68" y1="35.53" x2="319.68" xlink:href="#New_Gradient_Swatch_2"/><linearGradient id="New_Gradient_Swatch_2-11" x1="355.95" y1="35.53" x2="355.95" xlink:href="#New_Gradient_Swatch_2"/></defs><title>rosen-typo-h</title><g id="Layer_2" data-name="Layer 2"><g id="Rosen_Small" data-name="Rosen Small"><path class="cls-1" d="M9.4,20.25H7v11A4.59,4.59,0,0,1,6,34.5a3.27,3.27,0,0,1-2.51,1A3.19,3.19,0,0,1,.91,34.45,4.78,4.78,0,0,1,0,31.29V4.85A4.47,4.47,0,0,1,1,1.59a4.47,4.47,0,0,1,3.26-1H15.59a34.39,34.39,0,0,1,4,.2,10.08,10.08,0,0,1,3,.81,8.69,8.69,0,0,1,2.86,1.95,8.52,8.52,0,0,1,1.89,2.94A9.81,9.81,0,0,1,28,10a8.58,8.58,0,0,1-2.17,6.14,12.45,12.45,0,0,1-6.57,3.26,12.73,12.73,0,0,1,3.54,2.91,29.47,29.47,0,0,1,3,4.09,30.3,30.3,0,0,1,2.06,3.91,7.73,7.73,0,0,1,.74,2.4,2.45,2.45,0,0,1-.43,1.35A3,3,0,0,1,27,35.14a3.73,3.73,0,0,1-1.73.39,3.38,3.38,0,0,1-2-.55,5.3,5.3,0,0,1-1.37-1.39q-.57-.84-1.56-2.48l-2.79-4.64a25.53,25.53,0,0,0-2.68-3.89,6.62,6.62,0,0,0-2.4-1.83A8.26,8.26,0,0,0,9.4,20.25Zm4-14.44H7v9.45H13.2a17.47,17.47,0,0,0,4.22-.43A5,5,0,0,0,20,13.35a4.24,4.24,0,0,0,.9-2.87A4.44,4.44,0,0,0,20.2,8a4.39,4.39,0,0,0-2-1.63A14.5,14.5,0,0,0,13.38,5.81Z"/><path class="cls-2" d="M49.69,0a18.35,18.35,0,0,1,9.18,2.17,14.05,14.05,0,0,1,5.8,6.16,21,21,0,0,1,2,9.39A23,23,0,0,1,65.55,25a15.67,15.67,0,0,1-3.23,5.65A14.13,14.13,0,0,1,57,34.27a19.13,19.13,0,0,1-7.2,1.27,19,19,0,0,1-7.22-1.3,14.32,14.32,0,0,1-5.32-3.67,15.67,15.67,0,0,1-3.22-5.7A23,23,0,0,1,33,17.67a22.21,22.21,0,0,1,1.14-7.27,15.59,15.59,0,0,1,3.29-5.62,14.24,14.24,0,0,1,5.25-3.55A18.9,18.9,0,0,1,49.69,0Zm9.89,17.67a16.12,16.12,0,0,0-1.22-6.54,9.1,9.1,0,0,0-3.48-4.18,9.57,9.57,0,0,0-5.19-1.42,9.4,9.4,0,0,0-3.86.79,8.47,8.47,0,0,0-3,2.29,10.92,10.92,0,0,0-2,3.83A17.32,17.32,0,0,0,40,17.67a17.75,17.75,0,0,0,.74,5.3,10.86,10.86,0,0,0,2.09,3.93,8.76,8.76,0,0,0,3.09,2.33,9.77,9.77,0,0,0,8.74-.56,9.24,9.24,0,0,0,3.56-4.12A16,16,0,0,0,59.58,17.67Z"/><path class="cls-3" d="M98.7,24.63a10.1,10.1,0,0,1-1.61,5.6,10.67,10.67,0,0,1-4.7,3.89,17.61,17.61,0,0,1-7.34,1.41,16.51,16.51,0,0,1-8.39-1.92,11.18,11.18,0,0,1-3.81-3.69,8.38,8.38,0,0,1-1.46-4.49,3,3,0,0,1,3.12-3.07,2.65,2.65,0,0,1,1.86.7,5.53,5.53,0,0,1,1.3,2.09,13.94,13.94,0,0,0,1.42,2.74,5.75,5.75,0,0,0,2.14,1.82,7.93,7.93,0,0,0,3.63.71,8.2,8.2,0,0,0,5-1.44,4.34,4.34,0,0,0,1.93-3.6,3.8,3.8,0,0,0-1-2.78A6.73,6.73,0,0,0,88.09,21q-1.65-.56-4.42-1.2a32.41,32.41,0,0,1-6.2-2,10,10,0,0,1-4-3.16,8.21,8.21,0,0,1-1.46-5,8.55,8.55,0,0,1,1.55-5,9.75,9.75,0,0,1,4.48-3.39A18.33,18.33,0,0,1,85,0a17,17,0,0,1,5.47.79,11.57,11.57,0,0,1,3.83,2.09A8.71,8.71,0,0,1,96.49,5.6a6.3,6.3,0,0,1,.7,2.79,3.3,3.3,0,0,1-.88,2.24,2.8,2.8,0,0,1-2.19,1,2.52,2.52,0,0,1-1.82-.6,8.05,8.05,0,0,1-1.35-2,8.87,8.87,0,0,0-2.25-3,6.58,6.58,0,0,0-4.22-1.09,7.31,7.31,0,0,0-4.35,1.18A3.44,3.44,0,0,0,78.49,9a2.88,2.88,0,0,0,.56,1.78A4.74,4.74,0,0,0,80.6,12a10.43,10.43,0,0,0,2,.84q1,.3,3.33.89a52.22,52.22,0,0,1,5.26,1.5,16,16,0,0,1,4,2,8.19,8.19,0,0,1,2.58,3A9.5,9.5,0,0,1,98.7,24.63Z"/><path class="cls-4" d="M127.24,6H111.56v8.44H126a3.44,3.44,0,0,1,2.38.71,2.43,2.43,0,0,1,.79,1.89,2.52,2.52,0,0,1-.77,1.91,3.36,3.36,0,0,1-2.39.74H111.56v9.77h16.22a3.55,3.55,0,0,1,2.47.76,2.62,2.62,0,0,1,.83,2,2.56,2.56,0,0,1-.83,2,3.55,3.55,0,0,1-2.47.76H108.87a4.46,4.46,0,0,1-3.27-1,4.5,4.5,0,0,1-1-3.26V4.85A5.79,5.79,0,0,1,105,2.4,2.76,2.76,0,0,1,106.44,1a5.86,5.86,0,0,1,2.43-.43h18.38a3.57,3.57,0,0,1,2.47.74,2.5,2.5,0,0,1,.81,1.93,2.52,2.52,0,0,1-.81,2A3.57,3.57,0,0,1,127.24,6Z"/><path class="cls-5" d="M145.69,4.17l13.38,20.25V4a4.49,4.49,0,0,1,.86-3,2.89,2.89,0,0,1,2.31-1,3,3,0,0,1,2.37,1,4.44,4.44,0,0,1,.87,3V31q0,4.52-3.75,4.52a5,5,0,0,1-1.69-.27,4.28,4.28,0,0,1-1.41-.86A8.33,8.33,0,0,1,157.41,33q-.56-.79-1.12-1.61l-13.05-20V31.55a4.3,4.3,0,0,1-.91,3,3,3,0,0,1-2.34,1,3,3,0,0,1-2.37-1,4.38,4.38,0,0,1-.89-3V5a7.5,7.5,0,0,1,.38-2.65A3.78,3.78,0,0,1,138.56.67,4,4,0,0,1,140.79,0a3.65,3.65,0,0,1,2.78,1.13,8.47,8.47,0,0,1,1,1.34Z"/><path class="cls-6" d="M199.76,34.95h-10.5a4.34,4.34,0,0,1-3.25-1,4.58,4.58,0,0,1-1-3.25V4.85a4.5,4.5,0,0,1,1-3.27,4.42,4.42,0,0,1,3.22-1h11.13a26,26,0,0,1,4.27.3,9.09,9.09,0,0,1,3.23,1.17A8.49,8.49,0,0,1,210,3.9a8.12,8.12,0,0,1,1.43,2.46A8.24,8.24,0,0,1,212,9.21q0,5.16-5.16,7.55,6.77,2.16,6.77,8.39a9.43,9.43,0,0,1-1.48,5.19,8.86,8.86,0,0,1-4,3.41,14.17,14.17,0,0,1-3.61.93A36.78,36.78,0,0,1,199.76,34.95ZM192,5.81V14.7h6.38a12.8,12.8,0,0,0,4-.49,3.84,3.84,0,0,0,2.17-1.87,4.22,4.22,0,0,0,.59-2.2q0-2.6-1.85-3.46a14.15,14.15,0,0,0-5.65-.86Zm7.24,13.88H192v10h7.48q7.05,0,7.05-5.09a4.15,4.15,0,0,0-1.83-3.77A10.24,10.24,0,0,0,199.24,19.69Z"/><path class="cls-7" d="M229,20.25h-2.44v11a4.59,4.59,0,0,1-1,3.21,3.27,3.27,0,0,1-2.51,1,3.19,3.19,0,0,1-2.58-1.08,4.78,4.78,0,0,1-.91-3.16V4.85a4.47,4.47,0,0,1,1-3.26,4.47,4.47,0,0,1,3.26-1h11.32a34.39,34.39,0,0,1,4,.2,10.08,10.08,0,0,1,3,.81A8.69,8.69,0,0,1,245,3.54a8.52,8.52,0,0,1,1.89,2.94,9.81,9.81,0,0,1,.64,3.55,8.58,8.58,0,0,1-2.17,6.14,12.45,12.45,0,0,1-6.57,3.26,12.73,12.73,0,0,1,3.54,2.91,29.47,29.47,0,0,1,3,4.09,30.3,30.3,0,0,1,2.06,3.91,7.73,7.73,0,0,1,.74,2.4,2.45,2.45,0,0,1-.43,1.35,3,3,0,0,1-1.18,1.05,3.73,3.73,0,0,1-1.73.39,3.38,3.38,0,0,1-2-.55,5.3,5.3,0,0,1-1.37-1.39q-.57-.84-1.56-2.48l-2.79-4.64a25.53,25.53,0,0,0-2.68-3.89,6.62,6.62,0,0,0-2.4-1.83A8.26,8.26,0,0,0,229,20.25Zm4-14.44h-6.42v9.45h6.23a17.47,17.47,0,0,0,4.22-.43,5,5,0,0,0,2.61-1.48,4.24,4.24,0,0,0,.9-2.87A4.44,4.44,0,0,0,239.77,8a4.39,4.39,0,0,0-2-1.63A14.5,14.5,0,0,0,232.95,5.81Z"/><path class="cls-8" d="M254.41,31.29V4.22a4.56,4.56,0,0,1,1-3.16A3.21,3.21,0,0,1,257.86,0a3.32,3.32,0,0,1,2.54,1,4.52,4.52,0,0,1,1,3.18V31.29a4.56,4.56,0,0,1-1,3.19,3.3,3.3,0,0,1-2.54,1.05,3.2,3.2,0,0,1-2.47-1.07A4.57,4.57,0,0,1,254.41,31.29Z"/><path class="cls-9" d="M273.47.59h9.07a24.45,24.45,0,0,1,6.07.66A11.16,11.16,0,0,1,293.2,3.7q5.37,4.59,5.37,14a27.41,27.41,0,0,1-.54,5.65,16.68,16.68,0,0,1-1.66,4.61,14.31,14.31,0,0,1-2.88,3.67,11.93,11.93,0,0,1-3,2,13.69,13.69,0,0,1-3.53,1.05,26.85,26.85,0,0,1-4.25.3h-9.07a5.68,5.68,0,0,1-2.86-.57,2.67,2.67,0,0,1-1.25-1.62A10.28,10.28,0,0,1,269.2,30V4.85a4.47,4.47,0,0,1,1-3.26A4.47,4.47,0,0,1,273.47.59Zm2.7,5.51V29.41h5.27q1.73,0,2.72-.09a8.5,8.5,0,0,0,2-.47A5.55,5.55,0,0,0,288,27.8q3.49-3,3.49-10.17,0-5.09-1.54-7.62a6.83,6.83,0,0,0-3.79-3.22,18.67,18.67,0,0,0-5.44-.69Z"/><path class="cls-10" d="M336.07,21v6.59a6.92,6.92,0,0,1-.26,2.1,3.32,3.32,0,0,1-.95,1.42,8.94,8.94,0,0,1-1.77,1.22,27.83,27.83,0,0,1-6,2.46,24.19,24.19,0,0,1-6.28.77,20.46,20.46,0,0,1-7.22-1.22A15.18,15.18,0,0,1,308,30.77a15.62,15.62,0,0,1-3.53-5.62,21,21,0,0,1-1.23-7.38,21.57,21.57,0,0,1,1.2-7.34A15.06,15.06,0,0,1,308,4.78a15.43,15.43,0,0,1,5.65-3.55A21.66,21.66,0,0,1,321.19,0a18.72,18.72,0,0,1,6.14.93,13.51,13.51,0,0,1,4.34,2.33,10.4,10.4,0,0,1,2.51,3A6,6,0,0,1,335,9a3,3,0,0,1-1,2.24,3.26,3.26,0,0,1-2.33.93,3.14,3.14,0,0,1-1.44-.35,3.27,3.27,0,0,1-1.16-1,27.71,27.71,0,0,0-2.18-3,7,7,0,0,0-2.4-1.73,9.17,9.17,0,0,0-3.86-.7,10.64,10.64,0,0,0-4.31.83,8.91,8.91,0,0,0-3.25,2.41,10.89,10.89,0,0,0-2.06,3.88,17.06,17.06,0,0,0-.71,5.09q0,6,2.78,9.3a9.63,9.63,0,0,0,7.75,3.26,15.79,15.79,0,0,0,4.54-.63,23,23,0,0,0,4.3-1.8V22.13H324.3a5.91,5.91,0,0,1-2.94-.59,2.12,2.12,0,0,1-1-2,2.45,2.45,0,0,1,.83-1.9,3.25,3.25,0,0,1,2.26-.75h7.9a10.08,10.08,0,0,1,2.46.26,2.78,2.78,0,0,1,1.63,1.15A4.69,4.69,0,0,1,336.07,21Z"/><path class="cls-11" d="M365.34,6H349.66v8.44H364.1a3.44,3.44,0,0,1,2.38.71,2.43,2.43,0,0,1,.79,1.89,2.52,2.52,0,0,1-.77,1.91,3.36,3.36,0,0,1-2.39.74H349.66v9.77h16.22a3.55,3.55,0,0,1,2.47.76,2.62,2.62,0,0,1,.83,2,2.56,2.56,0,0,1-.83,2,3.55,3.55,0,0,1-2.47.76H347a4.46,4.46,0,0,1-3.27-1,4.5,4.5,0,0,1-1-3.26V4.85a5.79,5.79,0,0,1,.45-2.45A2.76,2.76,0,0,1,344.54,1,5.86,5.86,0,0,1,347,.59h18.38a3.57,3.57,0,0,1,2.47.74,2.5,2.5,0,0,1,.81,1.93,2.52,2.52,0,0,1-.81,2A3.57,3.57,0,0,1,365.34,6Z"/></g></g></svg>