<?xml version="1.0" encoding="UTF-8"?>
<!DOCTYPE svg PUBLIC "-//W3C//DTD SVG 1.1//EN" "http://www.w3.org/Graphics/SVG/1.1/DTD/svg11.dtd">
<!-- Creator: CorelDRAW (Versão de avaliação) -->
<svg xmlns="http://www.w3.org/2000/svg" xml:space="preserve" width="261.761mm" height="194.381mm" version="1.1" style="shape-rendering:geometricPrecision; text-rendering:geometricPrecision; image-rendering:optimizeQuality; fill-rule:evenodd; clip-rule:evenodd"
viewBox="0 0 26176.1 19438.06"
 xmlns:xlink="http://www.w3.org/1999/xlink"
 xmlns:xodm="http://www.corel.com/coreldraw/odm/2003">
 <defs>
  <style type="text/css">
   <![CDATA[
    .fil1 {fill:#B832BC;fill-rule:nonzero}
    .fil0 {fill:#E641F2;fill-rule:nonzero}
   ]]>
  </style>
 </defs>
 <g id="Camada_x0020_2">
  <metadata id="CorelCorpID_0Corel-Layer"/>
  <path class="fil0" d="M9207.48 16388.68c0,0 -1437.25,-2929.92 -1480.82,-7083.28 -43.53,-4153.36 1611.49,-5503.47 1480.82,-6461.65 -130.67,-958.15 -3066.52,-1959.86 -3449.6,-1959.86 -383.05,0 -1820.3,3222.91 -1689.63,6576.48 130.63,3353.58 2134.09,7752.4 5139.23,8928.31z"/>
  <path class="fil1" d="M16982.82 16388.68c0,0 1437.25,-2929.92 1480.82,-7083.28 43.53,-4153.36 -1611.45,-5503.47 -1480.82,-6461.65 130.67,-958.15 3066.56,-1959.86 3449.6,-1959.86 383.08,0 1820.3,3222.91 1689.67,6576.48 -130.67,3353.58 -2134.1,7752.4 -5139.27,8928.31z"/>
  <path class="fil0" d="M13096.65 35.35c-834.32,485.28 -3938.55,3651.67 -3843.34,9152.54 91.79,5305 3159.8,8666.09 3865.56,9370.2l82.09 -18574.17 -0.02 0 -104.29 51.43z"/>
  <path class="fil1" d="M13283.1 18558.09c705.77,-704.1 3773.77,-4065.19 3865.56,-9370.2 95.18,-5500.86 -3009.02,-8667.25 -3843.34,-9152.53l-104.35 -51.44 -82.09 18574.17 82.09 80.51 82.13 -80.51z"/>
  <path class="fil0" d="M4801.21 14262.1c-269.99,-435.12 -486.59,-867.1 -645.87,-1270.53 -653.27,-1655.02 -479.07,-3266.44 -958.14,-3310.01 -479.08,-43.57 -1916.33,653.27 -2438.97,958.14 -522.64,304.88 -914.61,958.18 -696.84,1872.8 217.77,914.61 783.94,2787.36 3745.55,5269.86 2961.6,2482.53 7708.83,1437.25 7708.83,1437.25 0,0 -11.96,-21.2 -44.07,-60.78 -2874.78,-516.57 -5304.89,-2361.46 -6670.49,-4896.73z"/>
  <path class="fil1" d="M25432.09 10639.72c-522.64,-304.88 -1959.89,-1001.72 -2439,-958.18 -479.07,43.56 -304.83,1655.02 -958.14,3310.04 -74.58,188.91 -162.25,384.28 -261.48,583.07 -1283.65,2903.47 -3909.2,5046.56 -7062.37,5593.54 -26.45,33.51 -36.58,51.43 -36.58,51.43 0,0 4747.26,1045.28 7708.87,-1437.25 2961.56,-2482.5 3527.77,-4355.29 3745.54,-5269.9 217.77,-914.58 -174.23,-1567.88 -696.84,-1872.75z"/>
 </g>
</svg>
