<svg width="2000" height="546" viewBox="0 0 2000 546" fill="none" xmlns="http://www.w3.org/2000/svg">
<path fill-rule="evenodd" clip-rule="evenodd" d="M160.564 80.3252L82.3984 273.214L172.906 273.203L251.582 78.7829V2.56934H2.99121V80.3252H160.564Z" fill="#14181B"/>
<path d="M251.582 467.623H94.2293L172.906 273.203L82.3984 273.213L2.99121 469.164V544.508H251.582V467.623Z" fill="#1142FF"/>
<path fill-rule="evenodd" clip-rule="evenodd" d="M531.042 2.56934H299.641V273.214H500.958V224.743H384.486V80.3252H531.042V2.56934Z" fill="#14181B"/>
<path d="M384.486 301.849H500.958V273.214H299.641V544.509H531.042V467.624H384.486V301.849Z" fill="#1142FF"/>
<path d="M579.854 544.509H655.444V273.214H579.854V544.509Z" fill="#1142FF"/>
<path fill-rule="evenodd" clip-rule="evenodd" d="M579.854 2.56934H686.296L754.923 273.214H688.656L656.985 150.721H655.444V273.214H579.854V2.56934ZM845.964 273.214V2.56934H770.373V273.214H845.964Z" fill="#14181B"/>
<path d="M770.373 328.064H768.829L754.923 273.214H688.656L758.802 544.509H845.964V273.214H770.373V328.064Z" fill="#1142FF"/>
<path fill-rule="evenodd" clip-rule="evenodd" d="M1155.86 273.214V240.164H1033.21V273.214H1155.86ZM987.702 273.214H902.857V138.275C902.857 94.5816 913.655 61.1695 935.253 38.0378C956.851 14.3923 988.218 1.91895 1029.36 1.91895C1070.49 1.91895 1101.86 14.3923 1123.46 38.0378C1145.06 61.1695 1155.86 94.5816 1155.86 138.275V184.538H1075.64V132.877C1075.64 97.4088 1060.98 79.6748 1031.67 79.6748C1002.36 79.6748 987.702 97.4088 987.702 132.877V273.214Z" fill="#14181B"/>
<path d="M935.253 509.81C956.851 532.944 988.218 544.289 1029.36 544.289C1070.49 544.289 1101.86 532.944 1123.46 509.81C1145.06 486.167 1155.86 452.496 1155.86 408.804V273.214H1033.21V317.269H1075.64V414.971C1075.64 449.927 1060.98 467.404 1031.67 467.404C1002.36 467.404 987.702 449.927 987.702 414.971V273.214H902.857V408.804C902.857 452.496 913.655 486.167 935.253 509.81Z" fill="#1142FF"/>
<path fill-rule="evenodd" clip-rule="evenodd" d="M1390.84 2.56934H1275.91L1231.99 273.214H1304.87L1329.13 97.2882H1330.67L1355.42 273.214H1434.75L1390.84 2.56934Z" fill="#14181B"/>
<path d="M1393.91 544.509H1478.76L1434.74 273.214H1355.42L1368.45 365.845H1292.09L1304.87 273.214H1231.99L1187.96 544.509H1266.64L1282.07 439.094H1378.48V437.554L1393.91 544.509Z" fill="#1142FF"/>
<path fill-rule="evenodd" clip-rule="evenodd" d="M1462.16 80.3252H1550.87L1550.86 273.214H1635.71L1635.71 80.3252H1724.42V2.56934H1462.16V80.3252Z" fill="#14181B"/>
<path d="M1550.85 544.509H1635.7L1635.71 273.214H1550.86L1550.85 544.509Z" fill="#1142FF"/>
<path fill-rule="evenodd" clip-rule="evenodd" d="M1997.01 2.56934H1765.5L1765.49 273.214H1966.8V224.743H1850.33L1850.34 80.3252H1997.01V2.56934Z" fill="#14181B"/>
<path d="M1850.33 301.849H1966.8V273.214H1765.49L1765.48 544.509H1997V467.624H1850.33V301.849Z" fill="#1142FF"/>
</svg>
